<?xml version="1.0" encoding="UTF-8" standalone="no"?>
<!-- Generator: Adobe Illustrator 16.0.0, SVG Export Plug-In . SVG Version: 6.00 Build 0)  -->

<svg
   xmlns:dc="http://purl.org/dc/elements/1.1/"
   xmlns:cc="http://creativecommons.org/ns#"
   xmlns:rdf="http://www.w3.org/1999/02/22-rdf-syntax-ns#"
   xmlns:svg="http://www.w3.org/2000/svg"
   xmlns="http://www.w3.org/2000/svg"
   xmlns:sodipodi="http://sodipodi.sourceforge.net/DTD/sodipodi-0.dtd"
   xmlns:inkscape="http://www.inkscape.org/namespaces/inkscape"
   version="1.1"
   id="Layer_6"
   x="0px"
   y="0px"
   width="100px"
   height="100px"
   viewBox="0 0 100 100"
   enable-background="new 0 0 100 100"
   xml:space="preserve"
   inkscape:version="0.48.5 r10040"
   sodipodi:docname="reddit.svg"><metadata
   id="metadata19"><rdf:RDF><cc:Work
       rdf:about=""><dc:format>image/svg+xml</dc:format><dc:type
         rdf:resource="http://purl.org/dc/dcmitype/StillImage" /></cc:Work></rdf:RDF></metadata><defs
   id="defs17" /><sodipodi:namedview
   pagecolor="#ffffff"
   bordercolor="#666666"
   borderopacity="1"
   objecttolerance="10"
   gridtolerance="10"
   guidetolerance="10"
   inkscape:pageopacity="0"
   inkscape:pageshadow="2"
   inkscape:window-width="1600"
   inkscape:window-height="837"
   id="namedview15"
   showgrid="false"
   inkscape:zoom="2.36"
   inkscape:cx="50"
   inkscape:cy="50"
   inkscape:window-x="-8"
   inkscape:window-y="-8"
   inkscape:window-maximized="1"
   inkscape:current-layer="Layer_6" />
<g
   id="g3"
   style="fill:#ffffff">
	<path
   d="M26.223,44.988c-0.977-0.766-2.18-1.207-3.432-1.207c-3.07,0-5.566,2.5-5.566,5.572c0,1.781,0.859,3.422,2.254,4.455   C20.637,50.494,22.986,47.484,26.223,44.988z"
   id="path5"
   style="fill:#ffffff" />
	<path
   d="M73.873,31.242c2.293,0,4.158-1.867,4.158-4.162s-1.865-4.16-4.158-4.16c-2.295,0-4.164,1.865-4.164,4.16   S71.578,31.242,73.873,31.242z"
   id="path7"
   style="fill:#ffffff" />
	<path
   d="M50,1.125C23.008,1.125,1.125,23.008,1.125,50S23.008,98.875,50,98.875S98.875,76.992,98.875,50S76.992,1.125,50,1.125z    M80.854,56.158c0.131,0.77,0.215,1.549,0.215,2.344c0,11.439-14.002,20.744-31.215,20.744c-17.211,0-31.211-9.305-31.211-20.744   c0-0.844,0.098-1.67,0.246-2.486c-2.348-1.377-3.832-3.9-3.832-6.662c0-4.268,3.469-7.738,7.734-7.738   c1.949,0,3.805,0.775,5.229,2.088c5.506-3.59,12.998-5.828,21.268-5.928l4.816-15.229c0.172-0.543,0.734-0.861,1.283-0.729   l12.604,2.967c0.922-2.354,3.205-4.031,5.883-4.031c3.488,0,6.326,2.838,6.326,6.326s-2.838,6.328-6.326,6.328   c-3.49,0-6.328-2.84-6.328-6.328c0-0.059,0.014-0.111,0.016-0.17l-11.693-2.754l-4.32,13.658c7.908,0.283,15.051,2.508,20.326,6   c1.434-1.385,3.309-2.199,5.332-2.199c4.266,0,7.738,3.471,7.738,7.738C84.943,52.248,83.359,54.822,80.854,56.158z"
   id="path9"
   style="fill:#ffffff" />
	<path
   d="M34.789,54.664c0-2.539,2.066-4.605,4.605-4.605s4.604,2.066,4.604,4.605s-2.064,4.604-4.604,4.604   S34.789,57.203,34.789,54.664z M61.172,68.316c-2.32,2.322-5.963,3.449-11.135,3.449c-0.012,0-0.023-0.008-0.037-0.008   s-0.025,0.008-0.039,0.008c-5.172,0-8.814-1.127-11.135-3.449c-0.422-0.422-0.422-1.107,0-1.531c0.424-0.422,1.109-0.422,1.533,0   c1.893,1.895,5.033,2.814,9.602,2.814c0.014,0,0.025,0.008,0.039,0.008s0.025-0.008,0.037-0.008c4.57,0,7.711-0.92,9.604-2.814   c0.424-0.422,1.109-0.422,1.533,0C61.596,67.209,61.596,67.895,61.172,68.316z M60.623,59.268c-2.537,0-4.604-2.064-4.604-4.604   s2.066-4.605,4.604-4.605c2.539,0,4.604,2.066,4.604,4.605S63.162,59.268,60.623,59.268z"
   id="path11"
   style="fill:#ffffff" />
	<path
   d="M77.205,43.781c-1.328,0-2.574,0.479-3.57,1.314c3.217,2.516,5.539,5.545,6.66,8.877c1.531-1.018,2.48-2.721,2.48-4.619   C82.775,46.281,80.279,43.781,77.205,43.781z"
   id="path13"
   style="fill:#ffffff" />
</g>
</svg>